# xmcd CD database file
#
# Track frame offsets:
#	150
#	16140
#	28837
#	42645
#	53150
#	62335
#	78790
#	89107
#	106392
#	121345
#	137030
#	150172
#	162987
#	169912
#	181692
#
# Disc length: 2587 seconds
#
# Revision: 0
# Processed by: cddbd v1.5.1PL0 Copyright (c) Steve Scherf et al.
# Submitted via: CDex 1.51
#
DISCID=b80a190f
DTITLE=Billie Holiday - a Jazz Hour with Billie Holiday
DYEAR=1900
DGENRE=Jazz
TTITLE0=Body and soul
TTITLE1=Strange fruit
TTITLE2=The man I love
TTITLE3=Gee, baby, ain't I good to you?
TTITLE4=All of me
TTITLE5=Billie's blues
TTITLE6=I cried for you
TTITLE7=Fine and mellow
TTITLE8=He's funny that way
TTITLE9=Trav'lin light
TTITLE10=He's funny that way
TTITLE11=You'd better go now
TTITLE12=You're driving me crazy
TTITLE13=There is no greater love
TTITLE14=I cover the waterfront
EXTD=
EXTT0=
EXTT1=
EXTT2=
EXTT3=
EXTT4=
EXTT5=
EXTT6=
EXTT7=
EXTT8=
EXTT9=
EXTT10=
EXTT11=
EXTT12=
EXTT13=
EXTT14=
PLAYORDER=
